<?xml version="1.0" encoding="utf-8"?>
<!-- Generator: Adobe Illustrator 22.0.1, SVG Export Plug-In . SVG Version: 6.00 Build 0)  -->
<svg version="1.1"
	 id="Layer_1" xmlns:cc="http://creativecommons.org/ns#" xmlns:dc="http://purl.org/dc/elements/1.1/" xmlns:inkscape="http://www.inkscape.org/namespaces/inkscape" xmlns:rdf="http://www.w3.org/1999/02/22-rdf-syntax-ns#" xmlns:sodipodi="http://sodipodi.sourceforge.net/DTD/sodipodi-0.dtd" xmlns:svg="http://www.w3.org/2000/svg"
	 xmlns="http://www.w3.org/2000/svg" xmlns:xlink="http://www.w3.org/1999/xlink" x="0px" y="0px" viewBox="0 0 601 129"
	 style="enable-background:new 0 0 601 129;" xml:space="preserve">
<style type="text/css">
	.st0{fill:#A8A8A8;}
	.st1{fill:#414042;}
	.st2{fill:#FBBE4B;}
	.st3{fill:#FFFFFF;}
	.st4{enable-background:new    ;}
	.st5{fill:#919191;}
	.st6{font-family:'UbuntuMono-BoldItalic';}
	.st7{font-size:14.0319px;}
</style>
<g id="XMLID_1_">
	<g>
		<polygon class="st0" points="64.2,29.2 50.8,29.2 50.8,15.8 		"/>
		<path d="M75.3,42.4v37.3c0,1-0.9,1.9-1.9,1.9h-3.8v9.9c0,1-0.9,1.9-1.9,1.9H13.1c0,0,0,0-0.1,0c-1,0-1.9-0.9-1.9-1.9
			c0-1,0.9-1.9,1.9-1.9l0,0h52.8v-8H24.4c-1,0-1.9-0.9-1.9-1.9V42.4c0-1,0.9-1.9,1.9-1.9h41.5v-7.5h-17c-1,0-1.9-0.9-1.9-1.9V14.1
			H15v69.8c0,0,0,0,0,0.1c0,1-0.9,1.9-1.9,1.9s-1.9-0.9-0.5-1.8V12.4c-1.4-1.1-0.6-2,0.3-2.1c0.1,0,0.1,0,0.2,0h36.8
			c0.5,0,0.9,0.2,1.3,0.5L69,28.7c0.4,0.4,0.5,0.9,0.5,1.3v10.4h3.8C74.5,40.5,75.3,41.3,75.3,42.4z M71.5,77.7v-9H59.3v9H71.5z
			 M71.5,65v-8.5H59.3V65C59.3,65,71.5,65,71.5,65z M71.5,52.7v-8.5H59.3v8.5H71.5z M50.8,29.2h13.4L50.8,15.8V29.2z M55.5,77.7v-9
			H42.3v9H55.5z M55.5,65v-8.5H42.3V65C42.3,65,55.5,65,55.5,65z M55.5,52.7v-8.5H42.3v8.5H55.5z M38.6,77.7v-9H26.3v9H38.6z
			 M38.6,65v-8.5H26.3V65C26.3,65,38.6,65,38.6,65z M38.6,52.7v-8.5H26.3v8.5H38.6z"/>
		<rect x="59.3" y="68.8" class="st1" width="12.3" height="9"/>
		<rect x="59.3" y="56.5" class="st2" width="12.3" height="8.5"/>
		<path class="st3" d="M65.9,81.5v8H13.1l0,0v-3.8c1,0,1.9-0.9,1.9-1.9c0,0,0,0,0-0.1V14.1h32.1v17c0,1,0.9,1.9,1.9,1.9h17v7.5H24.4
			c-1,0-1.9,0.9-1.9,1.9v37.3c0,1,0.9,1.9,1.9,1.9L65.9,81.5L65.9,81.5z"/>
		<rect x="42.3" y="68.8" class="st2" width="13.2" height="9"/>
		<rect x="42.3" y="44.3" class="st1" width="13.2" height="8.5"/>
		<rect x="26.3" y="68.8" class="st1" width="12.3" height="9"/>
		<rect x="26.3" y="44.3" class="st2" width="12.3" height="8.5"/>
	</g>
</g>
<g class="st4">
	<path class="st2" d="M107,53.7c-3.2-3.3-5.5-6.2-6.9-8.8c-1.3-2.5-2-5.2-2-8.1c0-4.3,1.3-8.5,3.9-12.3s6.2-6.9,10.7-9.1
		S122,12,127,12c5.8,0,10.3,1.1,13.3,3.6c3.2,2.4,4.7,5.8,4.7,10.2c0,2.2-0.5,4.3-1.7,6.6c-1.1,2.3-2.7,4.3-4.7,6.3
		c-1.4,1.4-2.7,2.4-3.8,3c-1.1,0.6-2.2,1-2.9,1c-1,0-1.5-0.8-1.5-2.3c0,0,0.1-0.5,0.3-1.8c0.3-1.8,0.4-3.3,0.4-4.7
		c0-1.9-0.3-3.9-0.9-5.8c-0.6-2-1.4-3.7-2.3-5c-0.9-1.4-1.8-2-2.7-2c-0.4,0-0.9,0.4-1.4,1c-1,1-1.8,2.4-2.4,3.9
		c-0.5,1.5-0.9,3-0.9,4.4c0,1.7,0.3,3.3,0.8,4.7c0.5,1.4,1.3,2.9,2.5,4.4s2.8,3.2,4.8,5c3.2,2.8,5.6,5.3,7.4,7.5
		c1.7,2.2,2.9,4.3,3.8,6.3c0.8,2.2,1.1,4.4,1.1,6.9c0,4.3-1.1,8.6-3.4,12.7c-2.3,4.1-5.3,7.4-9.1,9.9c-3.8,2.5-7.7,3.8-11.7,3.8
		c-3.8,0-7.6-0.9-11.2-2.5c-3.7-1.7-7.1-4.1-10.3-7.1c-3.3-3.3-5-6.2-5-8.6c0-1.5,0.8-3,2.2-4.6c1.5-1.5,3.3-2.8,5.6-3.8
		c2.2-1,4.1-1.5,5.6-1.5c0.9,0,1.7,0.3,2.2,0.6c0.6,0.4,1.1,1.1,1.7,2.2c0.5,1,0.9,2.4,1.4,4.2c0.8,2.5,1.4,4.4,2,5.6
		c0.6,1.3,1.4,2.4,2.5,3.7c1.1,1.1,2.3,1.7,3.6,1.7c1.5,0,2.7-0.6,3.6-1.8c0.9-1.1,1.3-2.8,1.3-4.8c0-3.2-1.1-6.5-3.4-9.8
		c-0.6-1.1-1.4-2-2.3-2.9c-0.8-0.9-2.5-2.4-5.3-4.8C110.2,56.7,108.9,55.5,107,53.7z"/>
	<path class="st2" d="M160.3,35.3l0.3-0.6c2.5-7,4.6-11.9,6.5-14.7c0.9-1.4,2-2.5,3.6-3.6c2.9-1.9,5.6-2.8,8.3-2.8
		c1.5,0,2.7,0.4,3.4,1c0.8,0.6,1.1,1.7,1.1,2.9c0,0.9-0.5,2.7-1.7,5.3c-1.9,4.4-3.4,8.6-4.3,12.4c0.6,0.1,1.3,0.1,1.9,0.4
		c2.3,0.4,3.8,0.8,4.4,1.1s1,1.3,1,2.3c0,2-0.5,3.8-1.5,5.6c-1,1.7-2.4,2.9-4.1,3.7c-1.3,0.5-3.3,0.9-6.1,1.1
		c-0.5,1.5-1,3.4-1.7,6.1c-0.4,2.3-0.8,5.3-1.1,9.4c-0.3,1.5-0.4,2.8-0.4,4.1c0,6,2.9,8.9,8.6,8.9h0.4h0.1c0.6,0,1,0.1,1,0.4
		c0,0.6-0.6,1.7-1.9,3c-1.3,1.4-2.7,2.7-4.2,3.8c-1.7,1.1-3.4,2-5.5,2.7c-2,0.6-3.7,1-5.3,1c-3.9,0-7.1-1.4-9.6-4.1
		c-2.4-2.7-3.7-6.2-3.7-10.7c0-1.9,0.4-4.3,1-7.4c0.6-3,1.7-7.1,3-12.2c0.3-0.9,0.5-1.9,0.8-2.8c0.3-1,0.4-1.7,0.5-1.8
		c-1.5,0-2.5-0.4-3.2-1c-0.6-0.6-1-1.5-1-2.9c0-2.4,0.9-4.6,2.8-6.7C155.7,37.2,157.9,35.8,160.3,35.3z"/>
	<path class="st2" d="M228.1,73.5v0.3l-0.3-0.3c-3.6,4.1-6.7,7.5-9.6,10c-2.9,2.7-5.6,4.6-8.1,5.8c-2.4,1.3-4.7,2-6.9,2
		c-4.2,0-7.7-1.4-10.4-4.2c-2.8-2.8-4.1-6.3-4.1-10.7c0-2.7,0.6-5.8,2-9.5c1.4-3.7,3.2-7.2,5.6-10.7c3.9-5.7,8.9-10.5,14.9-14.6
		c6.2-4.1,12.1-6.1,17.8-6.1c4.8,0,8.8,1,11.9,2.9c3,2,4.7,4.4,4.7,7.5c0,2.2-0.8,4.6-2.3,7.1c2,0,3.3,0.3,3.8,0.6s0.8,1.4,0.8,3
		c0-0.1-0.1,0.6-0.3,2.3c-0.3,3.7-0.4,7.2-0.4,10.4c0,1.7,0,2.9,0,3.8c0,0.9,0.1,1.9,0.3,3s0.3,2,0.4,2.7c0.3,1.8,0.8,3.6,1.5,5.2
		c-2.3,2.2-4.4,3.8-6.5,4.8c-2,1-4.2,1.5-6.3,1.5c-5.8,0-8.6-4.8-8.6-14.6C228,75.1,228,74.2,228.1,73.5z M231.4,60.6l-1,0.4
		c-2.7,0.8-4.7,1.1-5.8,1.1c-1.5,0-2.2-0.4-2.2-1.1c0-0.3,0.3-1,0.9-2c2.2-3.2,3.2-6.2,3.2-9c0-1.7-0.3-3-0.9-4.4
		c-0.5-1.4-1.1-2-1.9-2c-0.6,0-1.5,0.6-2.8,1.9c-3.6,3.8-6.2,7.7-8.4,11.7c-2,3.9-3,7.5-3,10.7c0,2,0.4,3.8,1.3,5.1
		c0.9,1.4,1.9,2,3.2,2c1.1,0,3.2-1.1,6.1-3.6c3-2.3,6.3-5.5,10-9.3l1.5-1.3L231.4,60.6z"/>
	<path class="st2" d="M272.3,72.8l-0.3,1.1c0,0.6-0.1,1.5-0.3,2.8c-0.1,1.9-0.4,3.3-0.6,4.6c-0.3,1.1-0.6,2.2-1.1,2.9
		s-1.3,1.7-2.2,2.4c-2.8,2.5-5.5,3.8-8.3,3.8c-2.3,0-3.9-0.9-5-2.5s-1.7-4.3-1.7-8c0-2.9,0.4-6.6,1-10.9s1.4-8.1,2.4-11.6l0.5-1.5
		c0-0.3,0.1-0.6,0.4-1.4c1.4-5.1,2.7-8.9,3.8-11.4c1.1-2.4,2.5-4.4,4.2-6c1.5-1.1,3.2-1.8,5-1.8c2.7,0,4.3,1.7,4.8,4.8
		c0.5-0.5,1-1,1.5-1.5c1.1-1.3,1.9-2.2,2.5-2.7c0.6-0.4,1.3-0.6,2-0.6c3.2,0,4.8,3.2,4.8,9.6c0,3.6-0.4,6.9-1.1,10.2s-1.7,6-2.8,8
		c-1.1,2-2.3,3-3.4,3c-1.3,0-1.9-2.4-1.9-7.1c0-2.5-0.1-4.4-0.4-5.8s-0.8-2.5-1.3-3.3c-1.1,2.2-1.9,7-2.2,14.5
		C272.5,68.8,272.4,71.6,272.3,72.8z"/>
</g>
<g class="st4">
	<path class="st1" d="M307.1,53.7c-3.2-3.3-5.5-6.2-6.9-8.8c-1.3-2.5-2-5.2-2-8.1c0-4.3,1.3-8.5,3.9-12.3s6.2-6.9,10.7-9.1
		c4.4-2.3,9.3-3.4,14.3-3.4c5.8,0,10.3,1.1,13.3,3.6c3.2,2.4,4.7,5.8,4.7,10.2c0,2.2-0.5,4.3-1.7,6.6c-1.1,2.3-2.7,4.3-4.7,6.3
		c-1.4,1.4-2.7,2.4-3.8,3c-1.1,0.6-2.2,1-2.9,1c-1,0-1.5-0.8-1.5-2.3c0,0,0.1-0.5,0.3-1.8c0.3-1.8,0.4-3.3,0.4-4.7
		c0-1.9-0.3-3.9-0.9-5.8c-0.6-2-1.4-3.7-2.3-5c-0.9-1.4-1.8-2-2.7-2c-0.4,0-0.9,0.4-1.4,1c-1,1-1.8,2.4-2.4,3.9
		c-0.5,1.5-0.9,3-0.9,4.4c0,1.7,0.3,3.3,0.8,4.7s1.3,2.9,2.5,4.4s2.8,3.2,4.8,5c3.2,2.8,5.6,5.3,7.4,7.5s2.9,4.3,3.8,6.3
		c0.8,2.2,1.1,4.4,1.1,6.9c0,4.3-1.1,8.6-3.4,12.7c-2.3,4.1-5.3,7.4-9.1,9.9c-3.8,2.5-7.7,3.8-11.7,3.8c-3.8,0-7.6-0.9-11.2-2.5
		c-3.7-1.7-7.1-4.1-10.3-7.1c-3.3-3.3-5-6.2-5-8.6c0-1.5,0.8-3,2.2-4.6c1.5-1.5,3.3-2.8,5.6-3.8c2.2-1,4.1-1.5,5.6-1.5
		c0.9,0,1.7,0.3,2.2,0.6c0.6,0.4,1.1,1.1,1.7,2.2s0.9,2.4,1.4,4.2c0.8,2.5,1.4,4.4,2,5.6c0.6,1.3,1.4,2.4,2.5,3.7
		c1.1,1.1,2.3,1.7,3.6,1.7c1.5,0,2.7-0.6,3.6-1.8c0.9-1.1,1.3-2.8,1.3-4.8c0-3.2-1.1-6.5-3.4-9.8c-0.6-1.1-1.4-2-2.3-2.9
		c-0.8-0.9-2.5-2.4-5.3-4.8C310.1,56.7,308.9,55.5,307.1,53.7z"/>
	<path class="st1" d="M387.6,21.1v-0.9c0-1.4-0.1-2-0.5-2c-0.5,0-1.3,0.8-2.3,2.3c-1,1.5-1.9,3.2-2.8,5.1c-2,4.7-3.9,9.6-5.5,15
		c-1.5,5.2-2.8,10.5-3.7,15.7c-0.3,2-0.6,4.2-1,6.6l0.3,0.3c3.8-3.9,6.6-6.6,8.4-8.3c1.9-1.7,4.2-3.4,7.1-5.6
		c3.7-2.5,6.7-3.8,9.1-3.8c1.5,0,2.8,0.5,3.6,1.7c0.9,1.1,1.3,2.7,1.3,4.6c0,1.1-0.3,2.8-0.6,4.8c-0.8,4.4-1.1,8.1-1.1,11.2
		c0,1.4,0.1,2.9,0.4,4.4c0.1,1.1,0.8,3.7,1.9,7.2c0.9,2.8,1.3,4.3,1.3,4.6c0,0.5-0.6,1.1-1.9,1.9c-3.9,2.7-7.6,3.9-11,3.9
		c-2.8,0-5-1.4-6.7-4.1c-1.7-2.7-2.5-6.2-2.5-10.4c0-1.7,0.1-3.8,0.5-6.2l-0.3-0.3c-5.3,5.5-8.9,9.3-10.7,11.2
		c-6.7,6.5-11.8,9.6-15.5,9.6c-1.7,0-3-1.1-4.1-3.3c-1-2.2-1.7-5.1-1.7-8.6c0-7.6,2.4-17.3,7.1-29.1c1.9-4.6,3.9-9,6-13.2
		c2.2-4.2,4.1-7.9,6.1-10.9c1.4-2.2,2.8-4.1,4.3-5.6c1.5-1.5,3-2.9,4.6-4.1c1.5-1,3.2-1.9,4.8-2.4s3.2-0.8,4.8-0.8
		c4.1,0,7.4,1.3,9.9,3.7c2.5,2.5,3.8,5.7,3.8,9.5c0,2.7-0.8,5.6-2.3,8.6c-1.5,3-3.7,6-6.5,8.6c-1.8,1.8-3.8,3.3-6,4.6
		c-2.3,1.4-3.9,2-5.2,2c-0.4,0-0.8-0.1-1-0.4c-0.3-0.3-0.5-0.6-0.5-1c0-0.5,0.5-1.8,1.5-3.7c1.1-2,2.3-4.6,3.3-7.6s1.9-5.8,2.5-8.5
		C387.3,25.3,387.6,23,387.6,21.1z"/>
	<path class="st1" d="M426.9,74.2c0.4,2.3,1.9,3.4,4.4,3.4c2.8,0,6.5-1.7,11-5c2.7-1.9,4.4-2.9,5.3-2.9c1.1,0,2.2,0.3,3.2,0.9
		c1,0.6,1.5,1.3,1.5,1.9c0,0.6-0.5,1.5-1.7,2.7c-2,2-4.3,3.9-6.9,5.8c-2.5,1.9-5.1,3.4-7.5,4.7c-2.4,1.3-4.8,2.3-7.2,3
		c-2.4,0.8-4.6,1.1-6.5,1.1c-4.7,0-8.5-1.4-11.3-4.1c-2.8-2.7-4.2-6.2-4.2-10.8c0-3.4,0.8-7.2,2.3-11.6s3.4-8.4,6-12.1
		c2.9-4.4,6.6-8.1,10.9-11c5.3-3.6,10.4-5.3,15.4-5.3c3.6,0,6.3,1.1,8.4,3.3c2,2.3,3,5.3,3,9.3c0,3-0.8,6.2-2.4,9.5
		c-1.7,3.3-3.9,6.5-7.1,9.5c-2.5,2.5-5.1,4.6-7.5,6c-2.4,1.4-4.6,2.2-6.5,2.2C428.7,74.8,427.8,74.6,426.9,74.2z M426.8,72.4
		c1.8-1.1,3-2.3,3.9-3.6c2-2.4,3.6-5.2,4.6-8.4c0.9-2,1.5-4.4,2-7c0.5-2.5,0.8-5,0.8-7.1c0-2-0.4-3-1.3-3c-1.1,0-3,2.7-5.6,8
		c-1.5,3.2-2.7,6.3-3.6,9.5c-0.9,3.2-1.4,6-1.4,8.3C426.4,69.7,426.6,70.9,426.8,72.4z"/>
	<path class="st1" d="M476.3,74.2c0.4,2.3,1.9,3.4,4.4,3.4c2.8,0,6.5-1.7,11-5c2.7-1.9,4.4-2.9,5.3-2.9c1.1,0,2.2,0.3,3.2,0.9
		s1.5,1.3,1.5,1.9c0,0.6-0.5,1.5-1.7,2.7c-2,2-4.3,3.9-6.9,5.8c-2.5,1.9-5.1,3.4-7.5,4.7s-4.8,2.3-7.2,3c-2.4,0.8-4.6,1.1-6.5,1.1
		c-4.7,0-8.5-1.4-11.3-4.1s-4.2-6.2-4.2-10.8c0-3.4,0.8-7.2,2.3-11.6c1.5-4.3,3.4-8.4,6-12.1c2.9-4.4,6.6-8.1,10.9-11
		c5.3-3.6,10.4-5.3,15.4-5.3c3.6,0,6.3,1.1,8.4,3.3c2,2.3,3,5.3,3,9.3c0,3-0.8,6.2-2.4,9.5c-1.7,3.3-3.9,6.5-7.1,9.5
		c-2.5,2.5-5.1,4.6-7.5,6c-2.4,1.4-4.6,2.2-6.5,2.2C478,74.8,477.2,74.6,476.3,74.2z M476.2,72.4c1.8-1.1,3-2.3,3.9-3.6
		c2-2.4,3.6-5.2,4.6-8.4c0.9-2,1.5-4.4,2-7c0.5-2.5,0.8-5,0.8-7.1c0-2-0.4-3-1.3-3c-1.1,0-3,2.7-5.6,8c-1.5,3.2-2.7,6.3-3.6,9.5
		c-0.9,3.2-1.4,6-1.4,8.3C475.7,69.7,475.9,70.9,476.2,72.4z"/>
	<path class="st1" d="M516.8,35.3l0.3-0.6c2.5-7,4.6-11.9,6.5-14.7c0.9-1.4,2-2.5,3.6-3.6c2.9-1.9,5.6-2.8,8.3-2.8
		c1.5,0,2.7,0.4,3.4,1c0.8,0.6,1.1,1.7,1.1,2.9c0,0.9-0.5,2.7-1.7,5.3c-1.9,4.4-3.4,8.6-4.3,12.4c0.6,0.1,1.3,0.1,1.9,0.4
		c2.3,0.4,3.8,0.8,4.4,1.1c0.8,0.4,1,1.3,1,2.3c0,2-0.5,3.8-1.5,5.6c-1,1.7-2.4,2.9-4.1,3.7c-1.3,0.5-3.3,0.9-6.1,1.1
		c-0.5,1.5-1,3.4-1.7,6.1c-0.4,2.3-0.8,5.3-1.1,9.4c-0.3,1.5-0.4,2.8-0.4,4.1c0,6,2.9,8.9,8.6,8.9h0.4h0.1c0.6,0,1,0.1,1,0.4
		c0,0.6-0.6,1.7-1.9,3c-1.3,1.4-2.7,2.7-4.2,3.8c-1.7,1.1-3.4,2-5.5,2.7c-1.9,0.6-3.7,1-5.3,1c-3.9,0-7.1-1.4-9.6-4.1
		c-2.4-2.7-3.7-6.2-3.7-10.7c0-1.9,0.4-4.3,1-7.4c0.6-3,1.7-7.1,3-12.2c0.3-0.9,0.5-1.9,0.8-2.8c0.3-1,0.4-1.7,0.5-1.8
		c-1.5,0-2.5-0.4-3.2-1s-1-1.5-1-2.9c0-2.4,0.9-4.6,2.8-6.7C512.3,37.2,514.3,35.8,516.8,35.3z"/>
	<path class="st1" d="M562.7,92.3c2.2-0.1,4.2-1.1,6.1-3.3c1.9-2.2,2.8-4.3,2.8-6.7c0-1.7-0.5-2.9-1.7-3.9c-1.1-1.1-3.8-2.3-7.9-3.4
		c-6-1.8-9.9-3.7-11.7-5.8c-1.7-1.8-2.5-3.8-2.5-6.2c0-4.3,1.5-8.6,4.7-13c3.2-4.3,7.1-7.9,12.1-10.7c5-2.8,9.8-4.2,14.7-4.2
		c2.4,0,4.7,0.5,6.7,1.7c2.2,1.1,3.8,2.7,5.1,4.4c1.3,1.9,1.9,3.9,1.9,6.1c0,2.2-0.6,4.3-2,6.6c-1.4,2.3-3,4.2-5.1,5.7
		c-2,1.5-3.9,2.3-5.8,2.3c-1,0-1.9-0.3-2.8-0.6c-0.8-0.5-1.1-0.9-1.1-1.5s0.1-1.3,0.5-2.3c0.9-3.2,1.3-6.1,1.3-8.5
		c0-2.4-0.8-4.6-2.2-6.7c-1.9,1.3-3,2.3-3.6,3c-1.4,1.7-2.5,3.6-3.3,5.6c-0.9,2.2-1.3,4.2-1.3,6.1c0,1.4,0.3,2.4,0.9,3.3
		c0.6,0.8,1.7,1.5,3,2c1.4,0.5,3.6,1.1,6.3,1.9c4.8,1.1,8.1,2.3,10.2,3.4c0.5,0.3,1.1,0.8,2,1.7c1.4,1.5,2.2,3.6,2.2,6
		c0,2.5-0.8,5.2-2.4,7.9c-1.7,2.7-4.1,5.3-7.5,8.3c-3.6,3-7.2,5.2-10.8,6.6c-3.6,1.3-7.5,2-11.8,2c-4.2,0-7.5-0.9-9.9-2.5
		s-3.6-3.9-3.6-6.7c0-2,0.8-4.1,2.4-6.2c1.5-2,3.6-3.8,5.8-5.1c2.4-1.3,4.7-2,6.9-2c1.7,0,2.5,0.4,2.5,1.1c0,0.4-0.3,1-0.8,1.9
		c-1.5,2.7-2.2,5.1-2.2,7.2C560.9,89.4,561.5,90.9,562.7,92.3z"/>
</g>
<text transform="matrix(1 0 0 1 99.2979 115.0254)" class="st5 st6 st7">a Google Sheet add-in to easily search, compare, and copy data</text>
</svg>
