<?xml version="1.0" encoding="utf-8"?>
<!-- Generator: Adobe Illustrator 22.0.1, SVG Export Plug-In . SVG Version: 6.00 Build 0)  -->
<svg version="1.1"
	 id="Layer_1" xmlns:cc="http://creativecommons.org/ns#" xmlns:dc="http://purl.org/dc/elements/1.1/" xmlns:inkscape="http://www.inkscape.org/namespaces/inkscape" xmlns:rdf="http://www.w3.org/1999/02/22-rdf-syntax-ns#" xmlns:sodipodi="http://sodipodi.sourceforge.net/DTD/sodipodi-0.dtd" xmlns:svg="http://www.w3.org/2000/svg"
	 xmlns="http://www.w3.org/2000/svg" xmlns:xlink="http://www.w3.org/1999/xlink" x="0px" y="0px" viewBox="0 0 862.4 178.6"
	 style="enable-background:new 0 0 862.4 178.6;" xml:space="preserve">
<style type="text/css">
	.st0{fill:#A8A8A8;}
	.st1{fill:#414042;}
	.st2{fill:#FBBE4B;}
	.st3{fill:#FFFFFF;}
	.st4{enable-background:new    ;}
	.st5{fill:#919191;}
	.st6{font-family:'UbuntuMono-BoldItalic';}
	.st7{font-size:20.1222px;}
</style>
<g id="XMLID_1_">
	<g>
		<polygon class="st0" points="87.3,37.4 68.1,37.4 68.1,18.2 		"/>
		<path d="M103.2,56.3v53.5c0,1.5-1.2,2.7-2.7,2.7h-5.4v14.2c0,1.5-1.2,2.7-2.7,2.7H14c0,0,0,0-0.2,0c-1.5,0-2.7-1.2-2.7-2.7
			c0-1.5,1.2-2.7,2.7-2.7l0,0h75.8v-11.5H30.2c-1.5,0-2.7-1.2-2.7-2.7V56.3c0-1.5,1.2-2.7,2.7-2.7h59.5V42.7H65.3
			c-1.5,0-2.7-1.2-2.7-2.7V15.7h-46v100.1c0,0,0,0,0,0.2c0,1.5-1.2,2.7-2.7,2.7s-2.7-1.2-0.7-2.6V13.3c-1.9-1.6-0.9-2.8,0.5-3
			c0.2,0,0.2,0,0.2,0h52.8c0.7,0,1.3,0.2,1.9,0.8l25.7,25.7c0.5,0.5,0.8,1.2,0.8,1.9v14.9h5.4C102,53.6,103.2,54.8,103.2,56.3z
			 M97.8,107V94.2H80.2V107H97.8z M97.8,88.7V76.6H80.2v12.1C80.2,88.7,97.8,88.7,97.8,88.7z M97.8,71.1V59H80.2v12.1H97.8z
			 M68.1,37.4h19.2L68.1,18.2V37.4z M74.8,107V94.2h-19V107H74.8z M74.8,88.7V76.6h-19v12.1C55.8,88.7,74.8,88.7,74.8,88.7z
			 M74.8,71.1V59h-19v12.1H74.8z M50.5,107V94.2H32.9V107H50.5z M50.5,88.7V76.6H32.9v12.1C32.9,88.7,50.5,88.7,50.5,88.7z
			 M50.5,71.1V59H32.9v12.1H50.5z"/>
		<rect x="80.2" y="94.2" class="st1" width="17.6" height="12.8"/>
		<rect x="80.2" y="76.6" class="st2" width="17.6" height="12.1"/>
		<path class="st3" d="M89.7,112.5v11.4H14l0,0v-5.4c1.5,0,2.7-1.2,2.7-2.7c0,0,0,0,0-0.2V15.7h46v24.4c0,1.5,1.2,2.7,2.7,2.7h24.4
			v10.8H30.2c-1.5,0-2.7,1.2-2.7,2.7v53.5c0,1.5,1.2,2.7,2.7,2.7L89.7,112.5L89.7,112.5z"/>
		<rect x="55.8" y="94.2" class="st2" width="18.9" height="12.8"/>
		<rect x="55.8" y="59" class="st1" width="18.9" height="12.1"/>
		<rect x="32.9" y="94.2" class="st1" width="17.6" height="12.8"/>
		<rect x="32.9" y="59" class="st2" width="17.6" height="12.1"/>
	</g>
</g>
<g class="st4">
	<path class="st2" d="M148.6,72.6c-4.6-4.7-7.8-8.9-9.8-12.6c-1.8-3.6-2.9-7.5-2.9-11.7c0-6.2,1.8-12.2,5.6-17.7
		c3.8-5.5,8.9-9.8,15.3-13.1c6.4-3.3,13.3-4.9,20.6-4.9c8.4,0,14.7,1.6,19.1,5.1c4.6,3.5,6.7,8.4,6.7,14.6c0,3.1-0.7,6.2-2.4,9.5
		c-1.6,3.3-3.8,6.2-6.7,9.1c-2,2-3.8,3.5-5.5,4.4c-1.6,0.9-3.1,1.5-4.2,1.5c-1.5,0-2.2-1.1-2.2-3.3c0,0,0.2-0.7,0.4-2.5
		c0.4-2.5,0.5-4.7,0.5-6.7c0-2.7-0.4-5.6-1.3-8.4c-0.9-2.9-2-5.3-3.3-7.1c-1.3-2-2.5-2.9-3.8-2.9c-0.5,0-1.3,0.5-2,1.5
		c-1.5,1.5-2.5,3.5-3.5,5.6c-0.7,2.2-1.3,4.4-1.3,6.4c0,2.4,0.4,4.7,1.1,6.7c0.7,2,1.8,4.2,3.6,6.4c1.8,2.2,4,4.6,6.9,7.1
		c4.6,4,8,7.6,10.6,10.7c2.4,3.1,4.2,6.2,5.5,9.1c1.1,3.1,1.6,6.4,1.6,9.8c0,6.2-1.6,12.4-4.9,18.2c-3.3,5.8-7.6,10.6-13.1,14.2
		c-5.5,3.6-11.1,5.5-16.8,5.5c-5.5,0-10.9-1.3-16-3.6c-5.3-2.4-10.2-5.8-14.7-10.2c-4.7-4.7-7.1-8.9-7.1-12.4c0-2.2,1.1-4.4,3.1-6.6
		c2.2-2.2,4.7-4,8-5.5c3.1-1.5,5.8-2.2,8-2.2c1.3,0,2.4,0.4,3.1,0.9c0.9,0.5,1.6,1.6,2.4,3.1c0.7,1.5,1.3,3.5,2,6
		c1.1,3.6,2,6.4,2.9,8c0.9,1.8,2,3.5,3.6,5.3c1.6,1.6,3.3,2.4,5.1,2.4c2.2,0,3.8-0.9,5.1-2.5s1.8-4,1.8-6.9c0-4.6-1.6-9.3-4.9-14
		c-0.9-1.6-2-2.9-3.3-4.2c-1.1-1.3-3.6-3.5-7.6-6.9C153.2,76.8,151.3,75.1,148.6,72.6z"/>
	<path class="st2" d="M225.1,46.2l0.4-0.9c3.6-10,6.6-17.1,9.3-21.1c1.3-2,2.9-3.6,5.1-5.1c4.2-2.7,8-4,11.8-4
		c2.2,0,3.8,0.5,4.9,1.5c1.1,0.9,1.6,2.4,1.6,4.2c0,1.3-0.7,3.8-2.4,7.6c-2.7,6.4-4.9,12.4-6.2,17.8c0.9,0.2,1.8,0.2,2.7,0.5
		c3.3,0.5,5.5,1.1,6.4,1.6c0.9,0.5,1.5,1.8,1.5,3.3c0,2.9-0.7,5.5-2.2,8c-1.5,2.4-3.5,4.2-5.8,5.3c-1.8,0.7-4.7,1.3-8.7,1.6
		c-0.7,2.2-1.5,4.9-2.4,8.7c-0.5,3.3-1.1,7.6-1.6,13.5c-0.4,2.2-0.5,4-0.5,5.8c0,8.6,4.2,12.7,12.4,12.7h0.5h0.2
		c0.9,0,1.5,0.2,1.5,0.5c0,0.9-0.9,2.4-2.7,4.4c-1.8,2-3.8,3.8-6,5.5c-2.4,1.6-4.9,2.9-7.8,3.8s-5.3,1.5-7.6,1.5
		c-5.6,0-10.2-2-13.8-5.8c-3.5-3.8-5.3-8.9-5.3-15.3c0-2.7,0.5-6.2,1.5-10.6s2.4-10.2,4.4-17.5c0.4-1.3,0.7-2.7,1.1-4
		c0.4-1.5,0.5-2.4,0.7-2.5c-2.2,0-3.6-0.5-4.6-1.5s-1.5-2.2-1.5-4.2c0-3.5,1.3-6.6,4-9.6C218.5,48.9,221.6,46.9,225.1,46.2z"/>
	<path class="st2" d="M322.3,101v0.4l-0.4-0.4c-5.1,5.8-9.6,10.7-13.8,14.4c-4.2,3.8-8,6.6-11.7,8.4c-3.5,1.8-6.7,2.9-9.8,2.9
		c-6,0-11.1-2-14.9-6c-4-4-5.8-9.1-5.8-15.3c0-3.8,0.9-8.4,2.9-13.7c2-5.3,4.6-10.4,8-15.3c5.6-8.2,12.7-15.1,21.3-20.9
		c8.9-5.8,17.3-8.7,25.5-8.7c6.9,0,12.6,1.5,17.1,4.2c4.4,2.9,6.7,6.4,6.7,10.7c0,3.1-1.1,6.6-3.3,10.2c2.9,0,4.7,0.4,5.5,0.9
		s1.1,2,1.1,4.4c0-0.2-0.2,0.9-0.4,3.3c-0.4,5.3-0.5,10.4-0.5,14.9c0,2.4,0,4.2,0,5.5c0,1.3,0.2,2.7,0.4,4.4s0.4,2.9,0.5,3.8
		c0.4,2.5,1.1,5.1,2.2,7.5c-3.3,3.1-6.4,5.5-9.3,6.9c-2.9,1.5-6,2.2-9.1,2.2c-8.4,0-12.4-6.9-12.4-20.9
		C322.1,103.2,322.1,101.9,322.3,101z M327,82.4l-1.5,0.5c-3.8,1.1-6.7,1.6-8.4,1.6c-2.2,0-3.1-0.5-3.1-1.6c0-0.4,0.4-1.5,1.3-2.9
		c3.1-4.6,4.6-8.9,4.6-12.9c0-2.4-0.4-4.4-1.3-6.4c-0.7-2-1.6-2.9-2.7-2.9c-0.9,0-2.2,0.9-4,2.7c-5.1,5.5-8.9,11.1-12,16.8
		c-2.9,5.6-4.4,10.7-4.4,15.3c0,2.9,0.5,5.5,1.8,7.3c1.3,2,2.7,2.9,4.6,2.9c1.6,0,4.6-1.6,8.7-5.1c4.4-3.3,9.1-7.8,14.4-13.3
		l2.2-1.8L327,82.4z"/>
	<path class="st2" d="M385.7,99.9l-0.4,1.6c0,0.9-0.2,2.2-0.4,4c-0.2,2.7-0.5,4.7-0.9,6.6c-0.4,1.6-0.9,3.1-1.6,4.2
		c-0.7,1.1-1.8,2.4-3.1,3.5c-4,3.6-7.8,5.5-11.8,5.5c-3.3,0-5.6-1.3-7.1-3.6c-1.5-2.4-2.4-6.2-2.4-11.5c0-4.2,0.5-9.5,1.5-15.7
		s2-11.7,3.5-16.6l0.7-2.2c0-0.4,0.2-0.9,0.5-2c2-7.3,3.8-12.7,5.5-16.4c1.6-3.5,3.6-6.4,6-8.6c2.2-1.6,4.6-2.5,7.1-2.5
		c3.8,0,6.2,2.4,6.9,6.9c0.7-0.7,1.5-1.5,2.2-2.2c1.6-1.8,2.7-3.1,3.6-3.8c0.9-0.5,1.8-0.9,2.9-0.9c4.6,0,6.9,4.6,6.9,13.8
		c0,5.1-0.5,9.8-1.6,14.6c-1.1,4.7-2.4,8.6-4,11.5c-1.6,2.9-3.3,4.4-4.9,4.4c-1.8,0-2.7-3.5-2.7-10.2c0-3.6-0.2-6.4-0.5-8.4
		s-1.1-3.6-1.8-4.7c-1.6,3.1-2.7,10-3.1,20.8C386,94.3,385.8,98.3,385.7,99.9z"/>
</g>
<g class="st4">
	<path class="st1" d="M435.5,72.6c-4.6-4.7-7.8-8.9-9.8-12.6c-1.8-3.6-2.9-7.5-2.9-11.7c0-6.2,1.8-12.2,5.6-17.7
		c3.8-5.5,8.9-9.8,15.3-13.1c6.4-3.3,13.3-4.9,20.6-4.9c8.4,0,14.7,1.6,19.1,5.1c4.6,3.5,6.7,8.4,6.7,14.6c0,3.1-0.7,6.2-2.4,9.5
		c-1.6,3.3-3.8,6.2-6.7,9.1c-2,2-3.8,3.5-5.5,4.4c-1.6,0.9-3.1,1.5-4.2,1.5c-1.5,0-2.2-1.1-2.2-3.3c0,0,0.2-0.7,0.4-2.5
		c0.4-2.5,0.5-4.7,0.5-6.7c0-2.7-0.4-5.6-1.3-8.4c-0.9-2.9-2-5.3-3.3-7.1c-1.3-2-2.5-2.9-3.8-2.9c-0.5,0-1.3,0.5-2,1.5
		c-1.5,1.5-2.5,3.5-3.5,5.6c-0.7,2.2-1.3,4.4-1.3,6.4c0,2.4,0.4,4.7,1.1,6.7c0.7,2,1.8,4.2,3.6,6.4c1.8,2.2,4,4.6,6.9,7.1
		c4.6,4,8,7.6,10.6,10.7c2.5,3.1,4.2,6.2,5.5,9.1c1.1,3.1,1.6,6.4,1.6,9.8c0,6.2-1.6,12.4-4.9,18.2c-3.3,5.8-7.6,10.6-13.1,14.2
		c-5.5,3.6-11.1,5.5-16.8,5.5c-5.5,0-10.9-1.3-16-3.6c-5.3-2.4-10.2-5.8-14.7-10.2c-4.7-4.7-7.1-8.9-7.1-12.4c0-2.2,1.1-4.4,3.1-6.6
		c2.2-2.2,4.7-4,8-5.5c3.1-1.5,5.8-2.2,8-2.2c1.3,0,2.4,0.4,3.1,0.9c0.9,0.5,1.6,1.6,2.4,3.1c0.7,1.5,1.3,3.5,2,6
		c1.1,3.6,2,6.4,2.9,8c0.9,1.8,2,3.5,3.6,5.3c1.6,1.6,3.3,2.4,5.1,2.4c2.2,0,3.8-0.9,5.1-2.5c1.3-1.6,1.8-4,1.8-6.9
		c0-4.6-1.6-9.3-4.9-14c-0.9-1.6-2-2.9-3.3-4.2c-1.1-1.3-3.6-3.5-7.6-6.9C439.9,76.8,438.1,75.1,435.5,72.6z"/>
	<path class="st1" d="M551,25.8v-1.3c0-2-0.2-2.9-0.7-2.9c-0.7,0-1.8,1.1-3.3,3.3c-1.5,2.2-2.7,4.6-4,7.3
		c-2.9,6.7-5.6,13.8-7.8,21.5c-2.2,7.5-4,15.1-5.3,22.6c-0.4,2.9-0.9,6-1.5,9.5l0.4,0.4c5.5-5.6,9.5-9.5,12-11.8
		c2.7-2.4,6-4.9,10.2-8c5.3-3.6,9.6-5.5,13.1-5.5c2.2,0,4,0.7,5.1,2.4c1.3,1.6,1.8,3.8,1.8,6.6c0,1.6-0.4,4-0.9,6.9
		c-1.1,6.4-1.6,11.7-1.6,16c0,2,0.2,4.2,0.5,6.4c0.2,1.6,1.1,5.3,2.7,10.4c1.3,4,1.8,6.2,1.8,6.6c0,0.7-0.9,1.6-2.7,2.7
		c-5.6,3.8-10.9,5.6-15.8,5.6c-4,0-7.1-2-9.6-5.8c-2.4-3.8-3.6-8.9-3.6-14.9c0-2.4,0.2-5.5,0.7-8.9l-0.4-0.4
		c-7.6,7.8-12.7,13.3-15.3,16c-9.6,9.3-16.9,13.8-22.2,13.8c-2.4,0-4.4-1.6-5.8-4.7c-1.5-3.1-2.4-7.3-2.4-12.4
		c0-10.9,3.5-24.8,10.2-41.7c2.7-6.6,5.6-12.9,8.6-18.9c3.1-6,5.8-11.3,8.7-15.7c2-3.1,4-5.8,6.2-8c2.2-2.2,4.4-4.2,6.6-5.8
		c2.2-1.5,4.6-2.7,6.9-3.5s4.6-1.1,6.9-1.1c5.8,0,10.6,1.8,14.2,5.3c3.6,3.6,5.5,8.2,5.5,13.7c0,3.8-1.1,8-3.3,12.4
		c-2.2,4.4-5.3,8.6-9.3,12.4c-2.5,2.5-5.5,4.7-8.6,6.6c-3.3,2-5.6,2.9-7.5,2.9c-0.5,0-1.1-0.2-1.5-0.5c-0.4-0.4-0.7-0.9-0.7-1.5
		c0-0.7,0.7-2.5,2.2-5.3c1.6-2.9,3.3-6.6,4.7-10.9s2.7-8.4,3.6-12.2C550.6,31.8,551,28.5,551,25.8z"/>
	<path class="st1" d="M607.4,101.9c0.5,3.3,2.7,4.9,6.4,4.9c4,0,9.3-2.4,15.8-7.1c3.8-2.7,6.4-4.2,7.6-4.2c1.6,0,3.1,0.4,4.6,1.3
		c1.5,0.9,2.2,1.8,2.2,2.7s-0.7,2.2-2.4,3.8c-2.9,2.9-6.2,5.6-9.8,8.4s-7.3,4.9-10.7,6.7c-3.5,1.8-6.9,3.3-10.4,4.4
		c-3.5,1.1-6.6,1.6-9.3,1.6c-6.7,0-12.2-2-16.2-5.8s-6-8.9-6-15.5c0-4.9,1.1-10.4,3.3-16.6c2.2-6.2,4.9-12,8.6-17.3
		c4.2-6.4,9.5-11.7,15.7-15.8c7.6-5.1,14.9-7.6,22-7.6c5.1,0,9.1,1.6,12,4.7c2.9,3.3,4.4,7.6,4.4,13.3c0,4.4-1.1,8.9-3.5,13.7
		c-2.4,4.7-5.6,9.3-10.2,13.7c-3.6,3.6-7.3,6.6-10.7,8.6c-3.5,2-6.6,3.1-9.3,3.1C610,102.8,608.7,102.5,607.4,101.9z M607.2,99.4
		c2.5-1.6,4.4-3.3,5.6-5.1c2.9-3.5,5.1-7.5,6.6-12c1.3-2.9,2.2-6.4,2.9-10s1.1-7.1,1.1-10.2c0-2.9-0.5-4.4-1.8-4.4
		c-1.6,0-4.4,3.8-8,11.5c-2.2,4.6-3.8,9.1-5.1,13.7c-1.3,4.6-2,8.6-2,11.8C606.7,95.5,606.9,97.2,607.2,99.4z"/>
	<path class="st1" d="M678.2,101.9c0.5,3.3,2.7,4.9,6.4,4.9c4,0,9.3-2.4,15.8-7.1c3.8-2.7,6.4-4.2,7.6-4.2c1.6,0,3.1,0.4,4.6,1.3
		c1.5,0.9,2.2,1.8,2.2,2.7s-0.7,2.2-2.4,3.8c-2.9,2.9-6.2,5.6-9.8,8.4s-7.3,4.9-10.7,6.7c-3.5,1.8-6.9,3.3-10.4,4.4
		c-3.5,1.1-6.6,1.6-9.3,1.6c-6.7,0-12.2-2-16.2-5.8c-4-3.8-6-8.9-6-15.5c0-4.9,1.1-10.4,3.3-16.6c2.2-6.2,4.9-12,8.6-17.3
		c4.2-6.4,9.5-11.7,15.7-15.8c7.6-5.1,14.9-7.6,22-7.6c5.1,0,9.1,1.6,12,4.7c2.9,3.3,4.4,7.6,4.4,13.3c0,4.4-1.1,8.9-3.5,13.7
		c-2.4,4.7-5.6,9.3-10.2,13.7c-3.6,3.6-7.3,6.6-10.7,8.6c-3.5,2-6.6,3.1-9.3,3.1C680.6,102.8,679.5,102.5,678.2,101.9z M678.1,99.4
		c2.5-1.6,4.4-3.3,5.6-5.1c2.9-3.5,5.1-7.5,6.6-12c1.3-2.9,2.2-6.4,2.9-10s1.1-7.1,1.1-10.2c0-2.9-0.5-4.4-1.8-4.4
		c-1.6,0-4.4,3.8-8,11.5c-2.2,4.6-3.8,9.1-5.1,13.7c-1.3,4.6-2,8.6-2,11.8C677.3,95.5,677.7,97.2,678.1,99.4z"/>
	<path class="st1" d="M736.3,46.2l0.4-0.9c3.6-10,6.6-17.1,9.3-21.1c1.3-2,2.9-3.6,5.1-5.1c4.2-2.7,8-4,11.8-4
		c2.2,0,3.8,0.5,4.9,1.5c1.1,0.9,1.6,2.4,1.6,4.2c0,1.3-0.7,3.8-2.4,7.6c-2.7,6.4-4.9,12.4-6.2,17.8c0.9,0.2,1.8,0.2,2.7,0.5
		c3.3,0.5,5.5,1.1,6.4,1.6c1.1,0.5,1.5,1.8,1.5,3.3c0,2.9-0.7,5.5-2.2,8c-1.5,2.4-3.5,4.2-5.8,5.3c-1.8,0.7-4.7,1.3-8.7,1.6
		c-0.7,2.2-1.5,4.9-2.4,8.7c-0.5,3.3-1.1,7.6-1.6,13.5c-0.4,2.2-0.5,4-0.5,5.8c0,8.6,4.2,12.7,12.4,12.7h0.5h0.2
		c0.9,0,1.5,0.2,1.5,0.5c0,0.9-0.9,2.4-2.7,4.4s-3.8,3.8-6,5.5c-2.4,1.6-4.9,2.9-7.8,3.8c-2.7,0.9-5.3,1.5-7.6,1.5
		c-5.6,0-10.2-2-13.8-5.8c-3.5-3.8-5.3-8.9-5.3-15.3c0-2.7,0.5-6.2,1.5-10.6s2.4-10.2,4.4-17.5c0.4-1.3,0.7-2.7,1.1-4
		c0.4-1.5,0.5-2.4,0.7-2.5c-2.2,0-3.6-0.5-4.6-1.5s-1.5-2.2-1.5-4.2c0-3.5,1.3-6.6,4-9.6C729.8,48.9,732.7,46.9,736.3,46.2z"/>
	<path class="st1" d="M802,127.9c3.1-0.2,6-1.6,8.7-4.7c2.7-3.1,4-6.2,4-9.6c0-2.4-0.7-4.2-2.4-5.6c-1.6-1.6-5.5-3.3-11.3-4.9
		c-8.6-2.5-14.2-5.3-16.8-8.4c-2.4-2.5-3.6-5.5-3.6-8.9c0-6.2,2.2-12.4,6.7-18.6c4.6-6.2,10.2-11.3,17.3-15.3c7.1-4,14-6,21.1-6
		c3.5,0,6.7,0.7,9.6,2.4c3.1,1.6,5.5,3.8,7.3,6.4c1.8,2.7,2.7,5.6,2.7,8.7c0,3.1-0.9,6.2-2.9,9.5c-2,3.3-4.4,6-7.3,8.2
		s-5.6,3.3-8.4,3.3c-1.5,0-2.7-0.4-4-0.9c-1.1-0.7-1.6-1.3-1.6-2.2s0.2-1.8,0.7-3.3c1.3-4.6,1.8-8.7,1.8-12.2c0-3.5-1.1-6.6-3.1-9.6
		c-2.7,1.8-4.4,3.3-5.1,4.4c-2,2.4-3.6,5.1-4.7,8c-1.3,3.1-1.8,6-1.8,8.7c0,2,0.4,3.5,1.3,4.7c0.9,1.1,2.4,2.2,4.4,2.9
		c2,0.7,5.1,1.6,9.1,2.7c6.9,1.6,11.7,3.3,14.6,4.9c0.7,0.4,1.6,1.1,2.9,2.4c2,2.2,3.1,5.1,3.1,8.6c0,3.6-1.1,7.5-3.5,11.3
		c-2.4,3.8-5.8,7.6-10.7,11.8c-5.1,4.4-10.4,7.5-15.5,9.5c-5.1,1.8-10.7,2.9-16.9,2.9c-6,0-10.7-1.3-14.2-3.6s-5.1-5.6-5.1-9.6
		c0-2.9,1.1-5.8,3.5-8.9c2.2-2.9,5.1-5.5,8.4-7.3c3.5-1.8,6.7-2.9,9.8-2.9c2.4,0,3.6,0.5,3.6,1.6c0,0.5-0.4,1.5-1.1,2.7
		c-2.2,3.8-3.1,7.3-3.1,10.4C799.5,123.8,800.4,125.9,802,127.9z"/>
</g>
<text transform="matrix(1 0 0 1 137.5791 163.4805)" class="st5 st6 st7">a Google Sheet add-in to easily search, compare, and copy data</text>
</svg>
