<?xml version="1.0" encoding="utf-8"?>
<!-- Generator: Adobe Illustrator 22.0.1, SVG Export Plug-In . SVG Version: 6.00 Build 0)  -->
<svg version="1.1"
	 id="Layer_1" xmlns:cc="http://creativecommons.org/ns#" xmlns:dc="http://purl.org/dc/elements/1.1/" xmlns:inkscape="http://www.inkscape.org/namespaces/inkscape" xmlns:rdf="http://www.w3.org/1999/02/22-rdf-syntax-ns#" xmlns:sodipodi="http://sodipodi.sourceforge.net/DTD/sodipodi-0.dtd" xmlns:svg="http://www.w3.org/2000/svg"
	 xmlns="http://www.w3.org/2000/svg" xmlns:xlink="http://www.w3.org/1999/xlink" x="0px" y="0px" viewBox="0 0 397.7 92"
	 style="enable-background:new 0 0 397.7 92;" xml:space="preserve">
<style type="text/css">
	.st0{fill:#A8A8A8;}
	.st1{fill:#414042;}
	.st2{fill:#FBBE4B;}
	.st3{fill:#FFFFFF;}
	.st4{enable-background:new    ;}
	.st5{fill:#919191;}
	.st6{font-family:'UbuntuMono-BoldItalic';}
	.st7{font-size:9px;}
</style>
<g id="XMLID_1_">
	<g>
		<polygon class="st0" points="45.2,22.4 36.6,22.4 36.6,13.8 		"/>
		<path d="M52.3,30.9v23.9c0,0.7-0.6,1.2-1.2,1.2h-2.4v6.4c0,0.7-0.6,1.2-1.2,1.2h-35c0,0,0,0-0.1,0c-0.7,0-1.2-0.6-1.2-1.2
			s0.6-1.2,1.2-1.2l0,0h33.9V56H19.6c-0.7,0-1.2-0.6-1.2-1.2V30.9c0-0.7,0.6-1.2,1.2-1.2h26.6v-4.8H35.4c-0.7,0-1.2-0.6-1.2-1.2
			V12.7H13.6v44.8c0,0,0,0,0,0.1c0,0.7-0.6,1.2-1.2,1.2c-0.7,0-1.2-0.6-0.3-1.1v-46c-0.9-0.7-0.4-1.3,0.2-1.3c0.1,0,0.1,0,0.1,0
			h23.6c0.3,0,0.6,0.1,0.8,0.3l11.5,11.5c0.2,0.2,0.3,0.6,0.3,0.8v6.6h2.4C51.7,29.6,52.3,30.2,52.3,30.9z M49.9,53.6v-5.7H42v5.7
			H49.9z M49.9,45.4v-5.4H42v5.4C42,45.4,49.9,45.4,49.9,45.4z M49.9,37.5v-5.4H42v5.4H49.9z M36.6,22.4h8.6l-8.6-8.6V22.4z
			 M39.6,53.6v-5.7h-8.5v5.7H39.6z M39.6,45.4v-5.4h-8.5v5.4C31.1,45.4,39.6,45.4,39.6,45.4z M39.6,37.5v-5.4h-8.5v5.4H39.6z
			 M28.7,53.6v-5.7h-7.9v5.7H28.7z M28.7,45.4v-5.4h-7.9v5.4C20.8,45.4,28.7,45.4,28.7,45.4z M28.7,37.5v-5.4h-7.9v5.4H28.7z"/>
		<rect x="42" y="47.8" class="st1" width="7.9" height="5.7"/>
		<rect x="42" y="39.9" class="st2" width="7.9" height="5.4"/>
		<path class="st3" d="M46.2,56v5.1H12.4l0,0v-2.4c0.7,0,1.2-0.6,1.2-1.2c0,0,0,0,0-0.1V12.7h20.6v10.9c0,0.7,0.6,1.2,1.2,1.2h10.9
			v4.8H19.6c-0.7,0-1.2,0.6-1.2,1.2v23.9c0,0.7,0.6,1.2,1.2,1.2L46.2,56L46.2,56z"/>
		<rect x="31.1" y="47.8" class="st2" width="8.5" height="5.7"/>
		<rect x="31.1" y="32.1" class="st1" width="8.5" height="5.4"/>
		<rect x="20.8" y="47.8" class="st1" width="7.9" height="5.7"/>
		<rect x="20.8" y="32.1" class="st2" width="7.9" height="5.4"/>
	</g>
</g>
<g class="st4">
	<path class="st2" d="M72.6,38.2c-2-2.1-3.5-4-4.4-5.6c-0.8-1.6-1.3-3.3-1.3-5.2c0-2.8,0.8-5.5,2.5-7.9s4-4.4,6.8-5.9
		s5.9-2.2,9.2-2.2c3.7,0,6.6,0.7,8.6,2.3c2,1.5,3,3.7,3,6.5c0,1.4-0.3,2.8-1.1,4.2c-0.7,1.5-1.7,2.8-3,4.1c-0.9,0.9-1.7,1.5-2.4,2
		s-1.4,0.7-1.9,0.7c-0.7,0-1-0.5-1-1.5c0,0,0.1-0.3,0.2-1.1c0.2-1.1,0.2-2.1,0.2-3c0-1.2-0.2-2.5-0.6-3.7c-0.4-1.3-0.9-2.4-1.5-3.2
		c-0.6-0.9-1.1-1.3-1.7-1.3c-0.2,0-0.6,0.2-0.9,0.7c-0.7,0.7-1.1,1.5-1.5,2.5c-0.3,1-0.6,2-0.6,2.9c0,1.1,0.2,2.1,0.5,3
		c0.3,0.9,0.8,1.9,1.6,2.9c0.8,1,1.8,2,3.1,3.2c2,1.8,3.6,3.4,4.7,4.8c1.1,1.4,1.9,2.8,2.4,4.1c0.5,1.4,0.7,2.9,0.7,4.4
		c0,2.8-0.7,5.5-2.2,8.1c-1.5,2.6-3.4,4.7-5.9,6.4c-2.4,1.6-5,2.4-7.5,2.4c-2.4,0-4.9-0.6-7.2-1.6c-2.4-1.1-4.6-2.6-6.6-4.6
		c-2.1-2.1-3.2-4-3.2-5.5c0-1,0.5-2,1.4-2.9c1-1,2.1-1.8,3.6-2.4c1.4-0.7,2.6-1,3.6-1c0.6,0,1.1,0.2,1.4,0.4
		c0.4,0.2,0.7,0.7,1.1,1.4c0.3,0.7,0.6,1.5,0.9,2.7c0.5,1.6,0.9,2.9,1.3,3.6c0.4,0.8,0.9,1.5,1.6,2.4c0.7,0.7,1.5,1.1,2.3,1.1
		c1,0,1.7-0.4,2.3-1.1c0.6-0.7,0.8-1.8,0.8-3.1c0-2-0.7-4.2-2.2-6.3c-0.4-0.7-0.9-1.3-1.5-1.9C78,43,76.8,42,75,40.4
		C74.6,40,73.8,39.3,72.6,38.2z"/>
	<path class="st2" d="M106.8,26.4l0.2-0.4c1.6-4.5,2.9-7.7,4.2-9.4c0.6-0.9,1.3-1.6,2.3-2.3c1.9-1.2,3.6-1.8,5.3-1.8
		c1,0,1.7,0.2,2.2,0.7s0.7,1.1,0.7,1.9c0,0.6-0.3,1.7-1.1,3.4c-1.2,2.9-2.2,5.5-2.8,8c0.4,0.1,0.8,0.1,1.2,0.2
		c1.5,0.2,2.4,0.5,2.9,0.7c0.4,0.2,0.7,0.8,0.7,1.5c0,1.3-0.3,2.4-1,3.6c-0.7,1.1-1.5,1.9-2.6,2.4c-0.8,0.3-2.1,0.6-3.9,0.7
		c-0.3,1-0.7,2.2-1.1,3.9c-0.2,1.5-0.5,3.4-0.7,6c-0.2,1-0.2,1.8-0.2,2.6c0,3.8,1.9,5.7,5.5,5.7h0.2h0.1c0.4,0,0.7,0.1,0.7,0.2
		c0,0.4-0.4,1.1-1.2,2c-0.8,0.9-1.7,1.7-2.7,2.4c-1.1,0.7-2.2,1.3-3.5,1.7c-1.3,0.4-2.4,0.7-3.4,0.7c-2.5,0-4.6-0.9-6.2-2.6
		c-1.5-1.7-2.4-4-2.4-6.8c0-1.2,0.2-2.8,0.7-4.7c0.4-2,1.1-4.6,2-7.8c0.2-0.6,0.3-1.2,0.5-1.8c0.2-0.7,0.2-1.1,0.3-1.1
		c-1,0-1.6-0.2-2-0.7c-0.4-0.4-0.7-1-0.7-1.9c0-1.5,0.6-2.9,1.8-4.3C103.9,27.6,105.3,26.7,106.8,26.4z"/>
	<path class="st2" d="M150.3,50.9V51l-0.2-0.2c-2.3,2.6-4.3,4.8-6.2,6.4c-1.9,1.7-3.6,2.9-5.2,3.7c-1.5,0.8-3,1.3-4.4,1.3
		c-2.7,0-5-0.9-6.7-2.7c-1.8-1.8-2.6-4.1-2.6-6.8c0-1.7,0.4-3.7,1.3-6.1c0.9-2.4,2-4.6,3.6-6.8c2.5-3.7,5.7-6.8,9.5-9.4
		c4-2.6,7.7-3.9,11.4-3.9c3.1,0,5.6,0.7,7.7,1.9c2,1.3,3,2.9,3,4.8c0,1.4-0.5,2.9-1.5,4.6c1.3,0,2.1,0.2,2.4,0.4
		c0.3,0.2,0.5,0.9,0.5,2c0-0.1-0.1,0.4-0.2,1.5c-0.2,2.4-0.2,4.6-0.2,6.7c0,1.1,0,1.9,0,2.4c0,0.6,0.1,1.2,0.2,2s0.2,1.3,0.2,1.7
		c0.2,1.1,0.5,2.3,1,3.3c-1.5,1.4-2.9,2.4-4.2,3.1c-1.3,0.7-2.7,1-4.1,1c-3.7,0-5.5-3.1-5.5-9.4C150.2,51.8,150.2,51.3,150.3,50.9z
		 M152.4,42.6l-0.7,0.2c-1.7,0.5-3,0.7-3.7,0.7c-1,0-1.4-0.2-1.4-0.7c0-0.2,0.2-0.7,0.6-1.3c1.4-2,2-4,2-5.8c0-1.1-0.2-2-0.6-2.9
		c-0.3-0.9-0.7-1.3-1.2-1.3c-0.4,0-1,0.4-1.8,1.2c-2.3,2.4-4,5-5.4,7.5c-1.3,2.5-2,4.8-2,6.8c0,1.3,0.2,2.4,0.8,3.3
		c0.6,0.9,1.2,1.3,2,1.3c0.7,0,2-0.7,3.9-2.3c2-1.5,4.1-3.5,6.4-5.9L152.4,42.6L152.4,42.6z"/>
	<path class="st2" d="M178.6,50.4l-0.2,0.7c0,0.4-0.1,1-0.2,1.8c-0.1,1.2-0.2,2.1-0.4,2.9c-0.2,0.7-0.4,1.4-0.7,1.9
		c-0.3,0.5-0.8,1.1-1.4,1.5c-1.8,1.6-3.5,2.4-5.3,2.4c-1.5,0-2.5-0.6-3.2-1.6c-0.7-1.1-1.1-2.8-1.1-5.1c0-1.9,0.2-4.2,0.7-7
		c0.4-2.8,0.9-5.2,1.5-7.4l0.3-1c0-0.2,0.1-0.4,0.2-0.9c0.9-3.3,1.7-5.7,2.4-7.3c0.7-1.5,1.6-2.9,2.7-3.8c1-0.7,2-1.1,3.2-1.1
		c1.7,0,2.8,1.1,3.1,3.1c0.3-0.3,0.7-0.7,1-1c0.7-0.8,1.2-1.4,1.6-1.7c0.4-0.2,0.8-0.4,1.3-0.4c2,0,3.1,2,3.1,6.2
		c0,2.3-0.2,4.4-0.7,6.5c-0.5,2.1-1.1,3.8-1.8,5.1c-0.7,1.3-1.5,2-2.2,2c-0.8,0-1.2-1.5-1.2-4.6c0-1.6-0.1-2.9-0.2-3.7
		c-0.2-0.9-0.5-1.6-0.8-2.1c-0.7,1.4-1.2,4.5-1.4,9.3C178.8,47.9,178.7,49.6,178.6,50.4z"/>
</g>
<g class="st4">
	<path class="st1" d="M200.9,38.2c-2-2.1-3.5-4-4.4-5.6c-0.8-1.6-1.3-3.3-1.3-5.2c0-2.8,0.8-5.5,2.5-7.9c1.7-2.4,4-4.4,6.8-5.9
		c2.9-1.5,5.9-2.2,9.2-2.2c3.7,0,6.6,0.7,8.6,2.3c2,1.5,3,3.7,3,6.5c0,1.4-0.3,2.8-1.1,4.2c-0.7,1.5-1.7,2.8-3,4.1
		c-0.9,0.9-1.7,1.5-2.4,2s-1.4,0.7-1.9,0.7c-0.7,0-1-0.5-1-1.5c0,0,0.1-0.3,0.2-1.1c0.2-1.1,0.2-2.1,0.2-3c0-1.2-0.2-2.5-0.6-3.7
		c-0.4-1.3-0.9-2.4-1.5-3.2c-0.6-0.9-1.1-1.3-1.7-1.3c-0.2,0-0.6,0.2-0.9,0.7c-0.7,0.7-1.1,1.5-1.5,2.5c-0.3,1-0.6,2-0.6,2.9
		c0,1.1,0.2,2.1,0.5,3c0.3,0.9,0.8,1.9,1.6,2.9s1.8,2,3.1,3.2c2,1.8,3.6,3.4,4.7,4.8c1.1,1.4,1.9,2.8,2.4,4.1
		c0.5,1.4,0.7,2.9,0.7,4.4c0,2.8-0.7,5.5-2.2,8.1c-1.5,2.6-3.4,4.7-5.9,6.4c-2.4,1.6-5,2.4-7.5,2.4c-2.4,0-4.9-0.6-7.2-1.6
		c-2.4-1.1-4.6-2.6-6.6-4.6c-2.1-2.1-3.2-4-3.2-5.5c0-1,0.5-2,1.4-2.9c1-1,2.1-1.8,3.6-2.4c1.4-0.7,2.6-1,3.6-1
		c0.6,0,1.1,0.2,1.4,0.4c0.4,0.2,0.7,0.7,1.1,1.4c0.3,0.7,0.6,1.5,0.9,2.7c0.5,1.6,0.9,2.9,1.3,3.6c0.4,0.8,0.9,1.5,1.6,2.4
		c0.7,0.7,1.5,1.1,2.3,1.1c1,0,1.7-0.4,2.3-1.1c0.6-0.7,0.8-1.8,0.8-3.1c0-2-0.7-4.2-2.2-6.3c-0.4-0.7-0.9-1.3-1.5-1.9
		c-0.5-0.6-1.6-1.5-3.4-3.1C202.9,40,202.1,39.3,200.9,38.2z"/>
	<path class="st1" d="M252.6,17.2v-0.6c0-0.9-0.1-1.3-0.3-1.3c-0.3,0-0.8,0.5-1.5,1.5c-0.7,1-1.2,2-1.8,3.3c-1.3,3-2.5,6.2-3.5,9.6
		c-1,3.3-1.8,6.8-2.4,10.1c-0.2,1.3-0.4,2.7-0.7,4.2l0.2,0.2c2.4-2.5,4.2-4.2,5.4-5.3c1.2-1.1,2.7-2.2,4.6-3.6
		c2.4-1.6,4.3-2.4,5.9-2.4c1,0,1.8,0.3,2.3,1.1c0.6,0.7,0.8,1.7,0.8,2.9c0,0.7-0.2,1.8-0.4,3.1c-0.5,2.9-0.7,5.2-0.7,7.2
		c0,0.9,0.1,1.9,0.2,2.9c0.1,0.7,0.5,2.4,1.2,4.6c0.6,1.8,0.8,2.8,0.8,2.9c0,0.3-0.4,0.7-1.2,1.2c-2.5,1.7-4.9,2.5-7.1,2.5
		c-1.8,0-3.2-0.9-4.3-2.6c-1.1-1.7-1.6-4-1.6-6.7c0-1.1,0.1-2.4,0.3-4l-0.2-0.2c-3.4,3.5-5.7,5.9-6.8,7.2c-4.3,4.2-7.6,6.2-9.9,6.2
		c-1.1,0-2-0.7-2.6-2.1c-0.7-1.4-1.1-3.3-1.1-5.5c0-4.9,1.5-11.1,4.6-18.6c1.2-2.9,2.5-5.8,3.8-8.5c1.4-2.7,2.6-5,3.9-7
		c0.9-1.4,1.8-2.6,2.8-3.6s2-1.9,2.9-2.6c1-0.7,2-1.2,3.1-1.5c1.1-0.3,2-0.5,3.1-0.5c2.6,0,4.7,0.8,6.4,2.4c1.6,1.6,2.4,3.7,2.4,6.1
		c0,1.7-0.5,3.6-1.5,5.5s-2.4,3.8-4.2,5.5c-1.1,1.1-2.4,2.1-3.8,2.9c-1.5,0.9-2.5,1.3-3.3,1.3c-0.2,0-0.5-0.1-0.7-0.2
		c-0.2-0.2-0.3-0.4-0.3-0.7c0-0.3,0.3-1.1,1-2.4c0.7-1.3,1.5-2.9,2.1-4.9c0.7-2,1.2-3.7,1.6-5.5C252.4,19.9,252.6,18.5,252.6,17.2z"
		/>
	<path class="st1" d="M277.8,51.3c0.2,1.5,1.2,2.2,2.9,2.2c1.8,0,4.2-1.1,7.1-3.2c1.7-1.2,2.9-1.9,3.4-1.9c0.7,0,1.4,0.2,2,0.6
		c0.7,0.4,1,0.8,1,1.2c0,0.4-0.3,1-1.1,1.7c-1.3,1.3-2.8,2.5-4.4,3.7s-3.3,2.2-4.8,3c-1.5,0.8-3.1,1.5-4.6,2
		c-1.5,0.5-2.9,0.7-4.2,0.7c-3,0-5.5-0.9-7.2-2.6c-1.8-1.7-2.7-4-2.7-6.9c0-2.2,0.5-4.6,1.5-7.4c1-2.8,2.2-5.4,3.8-7.7
		c1.9-2.9,4.2-5.2,7-7.1c3.4-2.3,6.7-3.4,9.9-3.4c2.3,0,4.1,0.7,5.4,2.1c1.3,1.5,2,3.4,2,5.9c0,2-0.5,4-1.5,6.1s-2.5,4.2-4.6,6.1
		c-1.6,1.6-3.3,2.9-4.8,3.8c-1.5,0.9-2.9,1.4-4.2,1.4C279,51.7,278.4,51.5,277.8,51.3z M277.7,50.1c1.1-0.7,2-1.5,2.5-2.3
		c1.3-1.5,2.3-3.3,2.9-5.4c0.6-1.3,1-2.9,1.3-4.5c0.3-1.6,0.5-3.2,0.5-4.6c0-1.3-0.2-2-0.8-2c-0.7,0-2,1.7-3.6,5.1
		c-1,2-1.7,4.1-2.3,6.1c-0.6,2-0.9,3.8-0.9,5.3C277.5,48.4,277.6,49.2,277.7,50.1z"/>
	<path class="st1" d="M309.5,51.3c0.2,1.5,1.2,2.2,2.9,2.2c1.8,0,4.2-1.1,7.1-3.2c1.7-1.2,2.9-1.9,3.4-1.9c0.7,0,1.4,0.2,2,0.6
		c0.7,0.4,1,0.8,1,1.2c0,0.4-0.3,1-1.1,1.7c-1.3,1.3-2.8,2.5-4.4,3.7s-3.3,2.2-4.8,3c-1.5,0.8-3.1,1.5-4.6,2
		c-1.5,0.5-2.9,0.7-4.2,0.7c-3,0-5.5-0.9-7.2-2.6c-1.8-1.7-2.7-4-2.7-6.9c0-2.2,0.5-4.6,1.5-7.4c1-2.8,2.2-5.4,3.8-7.7
		c1.9-2.9,4.2-5.2,7-7.1c3.4-2.3,6.7-3.4,9.9-3.4c2.3,0,4.1,0.7,5.4,2.1c1.3,1.5,2,3.4,2,5.9c0,2-0.5,4-1.5,6.1s-2.5,4.2-4.6,6.1
		c-1.6,1.6-3.3,2.9-4.8,3.8c-1.5,0.9-2.9,1.4-4.2,1.4C310.5,51.7,310.1,51.5,309.5,51.3z M309.4,50.1c1.1-0.7,2-1.5,2.5-2.3
		c1.3-1.5,2.3-3.3,2.9-5.4c0.6-1.3,1-2.9,1.3-4.5c0.3-1.6,0.5-3.2,0.5-4.6c0-1.3-0.2-2-0.8-2c-0.7,0-2,1.7-3.6,5.1
		c-1,2-1.7,4.1-2.3,6.1c-0.6,2-0.9,3.8-0.9,5.3C309.1,48.4,309.2,49.2,309.4,50.1z"/>
	<path class="st1" d="M335.5,26.4l0.2-0.4c1.6-4.5,2.9-7.7,4.2-9.4c0.6-0.9,1.3-1.6,2.3-2.3c1.9-1.2,3.6-1.8,5.3-1.8
		c1,0,1.7,0.2,2.2,0.7c0.5,0.4,0.7,1.1,0.7,1.9c0,0.6-0.3,1.7-1.1,3.4c-1.2,2.9-2.2,5.5-2.8,8c0.4,0.1,0.8,0.1,1.2,0.2
		c1.5,0.2,2.4,0.5,2.9,0.7c0.5,0.2,0.7,0.8,0.7,1.5c0,1.3-0.3,2.4-1,3.6c-0.7,1.1-1.5,1.9-2.6,2.4c-0.8,0.3-2.1,0.6-3.9,0.7
		c-0.3,1-0.7,2.2-1.1,3.9c-0.2,1.5-0.5,3.4-0.7,6c-0.2,1-0.2,1.8-0.2,2.6c0,3.8,1.9,5.7,5.5,5.7h0.2h0.1c0.4,0,0.7,0.1,0.7,0.2
		c0,0.4-0.4,1.1-1.2,2c-0.8,0.9-1.7,1.7-2.7,2.4c-1.1,0.7-2.2,1.3-3.5,1.7c-1.2,0.4-2.4,0.7-3.4,0.7c-2.5,0-4.6-0.9-6.2-2.6
		c-1.5-1.7-2.4-4-2.4-6.8c0-1.2,0.2-2.8,0.7-4.7c0.4-2,1.1-4.6,2-7.8c0.2-0.6,0.3-1.2,0.5-1.8c0.2-0.7,0.2-1.1,0.3-1.1
		c-1,0-1.6-0.2-2-0.7c-0.4-0.4-0.7-1-0.7-1.9c0-1.5,0.6-2.9,1.8-4.3C332.5,27.6,333.8,26.7,335.5,26.4z"/>
	<path class="st1" d="M364.9,62.9c1.4-0.1,2.7-0.7,3.9-2.1s1.8-2.8,1.8-4.3c0-1.1-0.3-1.9-1.1-2.5c-0.7-0.7-2.4-1.5-5-2.2
		c-3.8-1.1-6.4-2.4-7.5-3.7c-1.1-1.1-1.6-2.4-1.6-4c0-2.8,1-5.5,3-8.3c2-2.8,4.6-5,7.7-6.8c3.2-1.8,6.3-2.7,9.4-2.7
		c1.5,0,3,0.3,4.3,1.1c1.4,0.7,2.4,1.7,3.3,2.9c0.8,1.2,1.2,2.5,1.2,3.9c0,1.4-0.4,2.8-1.3,4.2c-0.9,1.5-2,2.7-3.3,3.7
		c-1.3,1-2.5,1.5-3.7,1.5c-0.7,0-1.2-0.2-1.8-0.4c-0.5-0.3-0.7-0.6-0.7-1s0.1-0.8,0.3-1.5c0.6-2,0.8-3.9,0.8-5.5
		c0-1.5-0.5-2.9-1.4-4.3c-1.2,0.8-2,1.5-2.3,2c-0.9,1.1-1.6,2.3-2.1,3.6c-0.6,1.4-0.8,2.7-0.8,3.9c0,0.9,0.2,1.5,0.6,2.1
		c0.4,0.5,1.1,1,2,1.3c0.9,0.3,2.3,0.7,4.1,1.2c3.1,0.7,5.2,1.5,6.5,2.2c0.3,0.2,0.7,0.5,1.3,1.1c0.9,1,1.4,2.3,1.4,3.8
		c0,1.6-0.5,3.3-1.5,5c-1.1,1.7-2.6,3.4-4.8,5.3c-2.3,2-4.6,3.3-6.9,4.2c-2.3,0.8-4.8,1.3-7.6,1.3c-2.7,0-4.8-0.6-6.4-1.6
		s-2.3-2.5-2.3-4.3c0-1.3,0.5-2.6,1.5-4c1-1.3,2.3-2.4,3.7-3.3c1.5-0.8,3-1.3,4.4-1.3c1.1,0,1.6,0.2,1.6,0.7c0,0.2-0.2,0.7-0.5,1.2
		c-1,1.7-1.4,3.3-1.4,4.6C363.7,61,364.1,62,364.9,62.9z"/>
</g>
<text transform="matrix(1 0 0 1 67.6688 77.4701)" class="st5 st6 st7">a Google Sheet add-in to easily search, compare, and copy data</text>
</svg>
